<svg xmlns="http://www.w3.org/2000/svg" width="70" height="70" viewBox="0 0 70 70">
  <g id="icon05" transform="translate(-779 -6610)">
    <rect id="長方形_153" data-name="長方形 153" width="70" height="70" transform="translate(779 6610)" fill="#fff" opacity="0"/>
    <g id="グループ_108" data-name="グループ 108" transform="translate(-32 41)">
      <rect id="長方形_151" data-name="長方形 151" width="57" height="35.014" transform="translate(818 6586)" fill="#fff"/>
      <path id="iconfinder_ui_13_3556113" d="M62.983,22.094c-.005-.036-.008-.073-.016-.109s-.024-.081-.038-.121-.025-.08-.041-.117-.036-.067-.054-.1-.045-.081-.071-.119c-.006-.008-.01-.018-.016-.026s-.039-.041-.057-.062-.059-.069-.092-.1-.061-.052-.093-.077-.067-.052-.1-.075-.07-.04-.105-.057a1.276,1.276,0,0,0-.116-.054c-.038-.015-.077-.025-.116-.036s-.08-.022-.121-.029A1.2,1.2,0,0,0,61.808,21c-.029,0-.056-.009-.084-.009H4.277c-.027,0-.054.006-.08.008a1.148,1.148,0,0,0-.131.013,1.1,1.1,0,0,0-.123.029c-.039.011-.077.022-.115.036a1.266,1.266,0,0,0-.116.052c-.036.018-.071.036-.106.057a1.183,1.183,0,0,0-.1.074c-.031.024-.063.049-.092.076a1.287,1.287,0,0,0-.094.1c-.017.02-.037.036-.053.056s-.011.02-.019.03a1.2,1.2,0,0,0-.073.119c-.019.033-.038.066-.054.1a1.252,1.252,0,0,0-.043.119c-.013.04-.027.079-.037.119s-.013.075-.018.114A1.261,1.261,0,0,0,3,22.23c0,.011,0,.023,0,.035V56.747c0,.02.005.039.006.059a1.155,1.155,0,0,0,.013.133c.006.04.013.08.023.119s.023.079.036.118a1.137,1.137,0,0,0,.047.115,1.421,1.421,0,0,0,.128.213c.024.031.049.061.075.091a1.257,1.257,0,0,0,.1.1c.014.013.025.028.04.041s.036.024.053.036.057.041.088.06a1.274,1.274,0,0,0,.119.065c.029.014.058.028.088.04a1.322,1.322,0,0,0,.146.045c.027.007.052.015.079.02a1.29,1.29,0,0,0,.237.024H61.721A1.238,1.238,0,0,0,61.959,58c.027-.005.052-.013.078-.02a1.229,1.229,0,0,0,.147-.046c.03-.011.058-.026.087-.04a1.177,1.177,0,0,0,.121-.066c.03-.019.059-.038.087-.059s.036-.023.054-.037.026-.027.04-.041c.034-.031.066-.063.1-.1a1.143,1.143,0,0,0,.075-.091c.025-.034.048-.069.07-.105a1.159,1.159,0,0,0,.058-.107c.018-.038.033-.076.047-.115s.027-.078.037-.118.017-.078.023-.118a1.18,1.18,0,0,0,.013-.133A.432.432,0,0,0,63,56.748V22.266c0-.01,0-.02,0-.029A1.193,1.193,0,0,0,62.983,22.094ZM48.507,38.7a1.276,1.276,0,0,0-1.97,1.623L59.018,55.471H6.982L19.464,40.319a1.276,1.276,0,0,0-1.97-1.623L5.553,53.19V24.847l21.481,16.41a9.457,9.457,0,0,0,11.365.056l22.047-16.5V53.19ZM8.051,23.542H57.887L36.87,39.269a6.9,6.9,0,0,1-8.286-.041Z" transform="translate(813 6564.011)" fill="#474645"/>
    </g>
  </g>
</svg>
