<svg id="レイヤー_1" data-name="レイヤー 1" xmlns="http://www.w3.org/2000/svg" viewBox="0 0 237 213"><defs><style>.cls-1{fill:#15876a;}</style></defs><title>logo2</title><path class="cls-1" d="M59.8,95.49c.58-.1,1.71-.44,2.18-.58V92.46h-.53a7.2,7.2,0,0,1-.48,2l-1.23-1.17a11.69,11.69,0,0,0,.5-4.07l1.38,0c0,.48,0,1,0,1.44H62V88.52h1.71v2.21h.73v1.73h-.73v1.91l.76-.25v1.77c-.16.07-.26.12-.76.31v3.55H62v-3c-.54.18-1.47.47-1.93.58Zm5.93.53H64.64V94.37h3.75v-.78H64.56V91.9h2.32V91H64.93V89.43h1.95v-.91h1.78v.91h2.1V91h-2.1v.86h2.43v1.69h-.93v.78H71V96h-.83V98.3c0,.82,0,1.45-1.24,1.45h-2l-.26-1.55-.65.39a9.09,9.09,0,0,0-1.37-1.92ZM67,98h1.1c.34,0,.34-.22.34-.44V96h-2a8.24,8.24,0,0,1,1.21,1.62Z"/><path class="cls-1" d="M80.89,88.64c-.17.6-.23.78-.33,1.11h4V91.5H82.3v2.18h2.42v1.76H82.3v4.28H80.53V95.44H78.15V93.68h2.38V91.5h-.66a9.81,9.81,0,0,1-1.13,1.87l-1-1v1.33h-4V92.33h3.9l-.27-.28s0-.06.08-.09h-4V90.53h4.6v.64a8.25,8.25,0,0,0,1.09-2.73Zm-3.13.14v1.38h-4V88.78Zm0,5.32v1.37h-4V94.1Zm0,1.76v3.71h-4V95.86Zm-1.45,1.3H75.4v1h.91Z"/><path class="cls-1" d="M97.41,99.67a7.83,7.83,0,0,1-2-1.87,16,16,0,0,1-2.13,2l-.78-1.29v1.25H90.83V97.89a35.2,35.2,0,0,1-3.68.77L87,96.9a5.1,5.1,0,0,0,.62-.05V90.42H87V88.8h6.1v.49h5V91a14.21,14.21,0,0,1-1.57,5.29,6.72,6.72,0,0,0,1.91,1.64Zm-8.15-9.25v1h1.57v-1Zm0,2.51v1h1.57v-1Zm1.57,2.51H89.26v1.19c.39-.06,1-.17,1.57-.29Zm3.72-4.32a8.35,8.35,0,0,0,.88,3.42,10.58,10.58,0,0,0,1-3.58H93v-.54H92.5V98a8.8,8.8,0,0,0,1.87-1.75A11.36,11.36,0,0,1,93,91.57Z"/><path class="cls-1" d="M100.41,90.48a4.93,4.93,0,0,0,1.87-2l1.63.53a9.06,9.06,0,0,1-2.8,3.3Zm3.89,1.43a12.13,12.13,0,0,1-1.07,1.86v5.94h-1.75V95.76a3.1,3.1,0,0,1-.55.39L100.46,94a8.34,8.34,0,0,0,2.3-2.76Zm.76,4.8h-1.37V95.23h5.08v-.45H104V93.44h7.56v1.34h-1v.45h1.33v1.48h-1.33v1.94c0,.63-.12,1.06-1.18,1.06h-1.88l-.29-1.57h1.28c.28,0,.31-.07.31-.38V96.71h-2.92a9.79,9.79,0,0,1,1.22,1.35l-1.38,1.07a12.35,12.35,0,0,0-1.44-1.78Zm6.12-7.85v4.19h-6.8V88.86ZM106.06,90v.52h3.45V90Zm0,1.43V92h3.45v-.52Z"/><path class="cls-1" d="M119.67,97.31c1.56-.12,3.46-.8,3.46-3.39A2.57,2.57,0,0,0,120.69,91c0,.73-.45,7.12-3.67,7.12-1.75,0-2.47-1.94-2.47-3.54a5.25,5.25,0,0,1,5.57-5.38c3.44,0,5,2.2,5,4.76a5.15,5.15,0,0,1-1.66,4,5.88,5.88,0,0,1-3.18,1.17Zm-3.3-2.64c0,.4.12,1.46.74,1.46s1.45-1.48,1.77-5A3.48,3.48,0,0,0,116.37,94.67Z"/><path class="cls-1" d="M134.48,89.17a12,12,0,0,0,3.84-.8L139,90a11.7,11.7,0,0,1-2.91.69v1.17H139V93.7h-.6v6H136.8v-6h-.71v.81a10.5,10.5,0,0,1-1.18,5.2l-1.11-.83v.48h-5.67V88.89h1.57v.56l1.06-.4a12,12,0,0,1,.63,2V88.51h1.37v2.35a9.53,9.53,0,0,0,.66-1.82l1.06.3Zm-3.09,1.92-1.12.47a9.8,9.8,0,0,0-.57-1.9v5.42a10.33,10.33,0,0,0,1.4-1.71H130V91.85h1.37Zm3.09-1.32a11.52,11.52,0,0,1-.78,1.79l-.94-.49v.78h1.29v1.52h-1a8.19,8.19,0,0,0,1.4,1.68l-.81,1.41a8.17,8.17,0,0,1-.85-1.25v2.22h-1.37V95.35a8.31,8.31,0,0,1-1.09,1.42l-.6-1.14v2.11h4.1V98a9.15,9.15,0,0,0,.68-3.6Z"/><path class="cls-1" d="M149.44,95.1c-.18-.15-.21-.19-.43-.35a6.69,6.69,0,0,1-1.21,2.12l-1-.76v.39c-1.25.16-1.52.17-4,.3l1.16.31a6.12,6.12,0,0,1-1.28,2.71l-1.5-1.06a4.71,4.71,0,0,0,1.22-1.93l-1,0-.15-1.37c.39,0,1.72,0,2.23,0v-.68H142v-.72c-.08.06,0,0-.13.07l-.65-1.19c.81-.33,1.05-.66,1.2-1.15h-1V90.7h2.1v-.49h-1.62V89.1h1.62v-.53h1.73v.53h1.58v1.11H145.2v.49h1.9v1.09h-1.44v.37c0,.08,0,.2.14.2h.25c.15,0,.16,0,.24-.4l1.07.18c0,.2-.05.27-.08.41l.26-.58.47.24a7.89,7.89,0,0,0,.06-.85h-.78V89.63h.83c0-.21,0-.9,0-1.06h1.64c0,.16,0,1,0,1.06h2c0,.85-.12,2.06-.12,3.75,0,.32,0,1.06.2,1.06s.25-.34.41-1l.61,1.36c-.12.46-.52,2.07-1.63,1.91a12.5,12.5,0,0,1,1.5,2.37l-1.72.7a14.09,14.09,0,0,0-1.52-2.63l1.42-.56c-.4-.26-.8-.74-.85-2.64Zm-5.91-1.4v-.63h.95a.66.66,0,0,1-.1-.32v-1h-.59a3.22,3.22,0,0,1-1.19,1.91Zm1.11,5.88a6.45,6.45,0,0,0,.1-1.35,8.89,8.89,0,0,0-.06-1.14l1.53-.06a13.55,13.55,0,0,1,.18,2.51ZM147,93.22a.47.47,0,0,1-.32.11H145.2v.37h1.58v1.08H145.2v.63l1.65-.1v0a4.94,4.94,0,0,0,.81-1.55,4.85,4.85,0,0,0-.75-.43Zm.55,6.35a19.29,19.29,0,0,0-.45-2.49l1.59-.1a10.16,10.16,0,0,1,.63,2.51Zm2-8.21c-.06.93-.08,1.14-.13,1.63a5.52,5.52,0,0,1,.63.46c0-.23,0-2,0-2.09Z"/><path class="cls-1" d="M155.49,89.1h10.22v1.78h-4.19v6.49h4.66v1.81H155V97.37h4.66V90.88h-4.17Z"/><path class="cls-1" d="M171.9,95.66a19,19,0,0,1-2.38,4l-1.13-1.64a19.48,19.48,0,0,0,2.14-3.42Zm-2.54-4.19a8.74,8.74,0,0,1,2.08,1.25l-1,1.47a9,9,0,0,0-2-1.29Zm.34-3a9.39,9.39,0,0,1,2.11,1.16l-1.06,1.48a9.5,9.5,0,0,0-2-1.27Zm5.87,6.29c-.35,1-.73,1.94-1.17,2.89.18,0,2.31-.14,2.62-.17a11.92,11.92,0,0,0-1-1.57l1.49-.76a16.28,16.28,0,0,1,2.22,3.89l-1.67.79c-.09-.23-.13-.35-.34-.82-1.58.21-4.49.4-6.11.46l-.21-1.72,1,0a19.14,19.14,0,0,0,1.12-3h-1.9V93.14h3.13V91.63h-2.69V90h2.69V88.56h1.79V90h2.71v1.68h-2.71v1.51h3.11v1.65Z"/><path class="cls-1" d="M46.52,114.06A11.09,11.09,0,0,0,35.44,103h-21a3.33,3.33,0,0,1-3.33-3.32A3.29,3.29,0,0,1,12.5,97L43,75.61l4.85,6.94,8.66-23.17-24.72.22,4.86,6.94L6.14,87.88a14.39,14.39,0,0,0,8.26,26.18h21v31.06H46.52Z"/><path class="cls-1" d="M110.47,28.35A15.51,15.51,0,1,0,92.68,3L80.35,11.59,75.49,4.65,66.83,27.81l24.73-.21L86.7,20.66,99,12a4.43,4.43,0,1,1,5.08,7.25l-49.93,35,6.35,9.07Z"/><path class="cls-1" d="M132.88,19.27A4.43,4.43,0,1,1,138,12l12.34,8.64-4.86,6.94,24.73.21L161.51,4.65l-4.86,6.94L144.31,3a15.5,15.5,0,1,0-17.78,25.4l49.93,35,6.35-9.07Z"/><path class="cls-1" d="M190.48,166.56v31.9a3.36,3.36,0,0,1-3.32,3.32H49.84a3.36,3.36,0,0,1-3.32-3.32v-31.9H55L41,146.18,27,166.56h8.47v31.9a14.41,14.41,0,0,0,14.4,14.39H187.16a14.41,14.41,0,0,0,14.4-14.39v-31.9H210l-14-20.38-14,20.38Z"/><path class="cls-1" d="M230.86,87.88,200.37,66.54l4.86-6.94-24.72-.22,8.66,23.17L194,75.61,224.5,97a3.28,3.28,0,0,1,1.42,2.72A3.32,3.32,0,0,1,222.6,103h-21a11.09,11.09,0,0,0-11.08,11.07v31.06h11.08V114.07h21a14.39,14.39,0,0,0,8.26-26.18Z"/><path class="cls-1" d="M98.05,110.88a5,5,0,1,1,1.46,3.53A4.81,4.81,0,0,1,98.05,110.88Z"/><path class="cls-1" d="M123.84,117.58v7.18H124a10.61,10.61,0,0,1,2.76-3.16,5,5,0,0,1,2.91-1.17,8.25,8.25,0,0,1,1.47.12v8.73a10.24,10.24,0,0,0-2-.19,4.54,4.54,0,0,0-3.82,1.73,7.68,7.68,0,0,0-1.36,4.84v11.93h-8.09V120.8Z"/><path class="cls-1" d="M162.46,110.68c6.36-.49,11.08-1.34,14.55-2.8l5.37,6.44c-4.42,2.46-11.65,2.67-13.29,2.9V121h10.12l4.5,7.42h-6V150.8h-6.71V128.42h-2v2.94c0,1.51-.05,12.41-4.54,19.44l-4.31-3.25v1.78H138.4V109.88h6.4V112l3.65-1.65a39.32,39.32,0,0,1,2.36,5.69v-7.56h5.56v7.74a33.38,33.38,0,0,0,2.31-5.87l3.78,1.16Zm-11.65,7.38L146.76,120a25.67,25.67,0,0,0-2-6V132.2a40.09,40.09,0,0,0,4.63-5.2H146v-6.27h4.8Zm9.43,25.08a31.28,31.28,0,0,0,2.09-9.69l-2.94,5.16a28.62,28.62,0,0,1-3-4.23v7.39h-5.56v-6.94a27.94,27.94,0,0,1-3.83,4.62L144.8,135v7.65h15.44Zm2.22-28.82a38.93,38.93,0,0,1-2.76,5.61l-3.33-1.83v2.63h4.76V127H157.7a24.87,24.87,0,0,0,4.72,5.38c0-.58,0-1.33,0-1.64Z"/><path class="cls-1" d="M69.67,113.16H76.5l10.93,25.1-6,3.6-.47-1H65.32l-3.21,6.76H53.29Zm3.41,11.28-4.81,10.15H78Z"/><polygon class="cls-1" points="67.57 117.58 78.41 117.58 73.22 105.68 67.57 117.58"/><polygon class="cls-1" points="106.49 130.87 112.08 130.87 103.06 117.76 94.05 130.87 99.56 130.87 99.56 136.13 106.49 136.13 106.49 130.87"/><path class="cls-1" d="M93.8,148.63a14.46,14.46,0,0,1-12.32-6.77l6-3.59a7.69,7.69,0,0,0,8.31,3.15c1.74-.48,3.82-1.87,3.82-5.72v-6.45h7v6.45c0,6.13-3.41,10.89-8.91,12.42A14.08,14.08,0,0,1,93.8,148.63Z"/></svg>